#Comment line ignore any data following # character 
#Hierarchical Translation and Rotation (.htr) file 
[Header]	
#Header keywords are followed by a single value 
FileType HTR		#Single word string
DataType HTRS		#Translation followed by rotation and scale data
FileVersion 1		#integer
NumSegments 84		#integer
NumFrames 2		#integer
DataFrameRate 30		#integer, data frame rate in this file
EulerRotationOrder ZYX
CalibrationUnits mm
RotationUnits Degrees
GlobalAxisofGravity Y
BoneLengthAxis Y
ScaleFactor 1.00
[SegmentNames&Hierarchy]
#CHILD	PARENT
MASTER GLOBAL
root MASTER
chest root
L_mid_tent01 root
R_mid_tent01 root
spine01 root
Bip01_Neck chest
L_humerus chest
R_humerus chest
weapon_bone chest
Bip01_Head Bip01_Neck
eye_left_bone Bip01_Head
eye_right_bone Bip01_Head
L_forearm L_humerus
L_front_hand L_forearm
L_weapon_bone L_forearm
L_front_hand01_01 L_front_hand
L_front_hand02_01 L_front_hand
L_front_hand03_01 L_front_hand
L_front_hand01_02 L_front_hand01_01
L_front_hand02_02 L_front_hand02_01
L_front_hand03_02 L_front_hand03_01
R_forearm R_humerus
R_front_hand R_forearm
R_weapon_bone R_forearm
R_front_hand01_01 R_front_hand
R_front_hand02_01 R_front_hand
R_front_hand03_01 R_front_hand
R_front_hand01_02 R_front_hand01_01
R_front_hand02_02 R_front_hand02_01
R_front_hand03_02 R_front_hand03_01
null_rope01_connect L_mid_tent01
Rope1_Seg01 null_rope01_connect
Rope1_Seg02 Rope1_Seg01
Rope1_Seg03 Rope1_Seg02
Rope1_Seg04 Rope1_Seg03
Rope1_Seg05 Rope1_Seg04
Rope1_Seg06 Rope1_Seg05
Rope1_Seg07 Rope1_Seg06
Rope1_Seg09 Rope1_Seg07
L_mid_hand01 Rope1_Seg09
L_mid_hand02 Rope1_Seg09
L_mid_hand03 Rope1_Seg09
null_rope02_connect R_mid_tent01
Rope2_Seg01 null_rope02_connect
Rope2_Seg02 Rope2_Seg01
Rope2_Seg03 Rope2_Seg02
Rope2_Seg04 Rope2_Seg03
Rope2_Seg05 Rope2_Seg04
Rope2_Seg06 Rope2_Seg05
Rope2_Seg07 Rope2_Seg06
Rope2_Seg09 Rope2_Seg07
R_mid_hand01 Rope2_Seg09
R_mid_hand02 Rope2_Seg09
R_mid_hand03 Rope2_Seg09
spine02 spine01
spine03 spine02
pelvis spine03
null_rope03_connect pelvis
null_rope04_connect pelvis
Rope3_Seg01 null_rope03_connect
Rope3_Seg02 Rope3_Seg01
Rope3_Seg03 Rope3_Seg02
Rope3_Seg04 Rope3_Seg03
Rope3_Seg05 Rope3_Seg04
Rope3_Seg06 Rope3_Seg05
Rope3_Seg07 Rope3_Seg06
Rope3_Seg08 Rope3_Seg07
Rope3_Seg09 Rope3_Seg08
R_rear_hand01 Rope3_Seg09
R_rear_hand02 Rope3_Seg09
R_rear_hand03 Rope3_Seg09
Rope4_Seg01 null_rope04_connect
Rope4_Seg02 Rope4_Seg01
Rope4_Seg03 Rope4_Seg02
Rope4_Seg04 Rope4_Seg03
Rope4_Seg05 Rope4_Seg04
Rope4_Seg06 Rope4_Seg05
Rope4_Seg07 Rope4_Seg06
Rope4_Seg08 Rope4_Seg07
Rope4_Seg09 Rope4_Seg08
L_rear_hand01 Rope4_Seg09
L_rear_hand02 Rope4_Seg09
L_rear_hand03 Rope4_Seg09
[BasePosition]
#SegmentName Tx, Ty, Tz, Rx, Ry, Rz, BoneLength
MASTER 0.000000 0.000000 0.000000 -90.000000 0.000000 0.000000 10.000000 
root 0.000000 0.000000 0.000000 0.000000 0.000000 0.000000 10.000000 
chest 0.000000 0.000000 0.000000 0.000000 0.000000 0.000000 10.000000 
L_mid_tent01 0.000000 0.000000 0.000000 0.000000 0.000000 0.000000 10.000000 
R_mid_tent01 0.000000 0.000000 0.000000 0.000000 0.000000 0.000000 10.000000 
spine01 0.000000 0.000000 0.000000 0.000000 0.000000 0.000000 10.000000 
Bip01_Neck 0.000000 0.000000 0.000000 0.000000 0.000000 0.000000 10.000000 
L_humerus 0.000000 0.000000 0.000000 0.000000 0.000000 0.000000 10.000000 
R_humerus 0.000000 0.000000 0.000000 0.000000 0.000000 0.000000 10.000000 
weapon_bone 0.000000 0.000000 0.000000 0.000000 0.000000 0.000000 10.000000 
Bip01_Head 0.000000 0.000000 0.000000 0.000000 0.000000 0.000000 10.000000 
eye_left_bone 0.000000 0.000000 0.000000 0.000000 0.000000 0.000000 10.000000 
eye_right_bone 0.000000 0.000000 0.000000 0.000000 0.000000 0.000000 10.000000 
L_forearm 0.000000 0.000000 0.000000 0.000000 0.000000 0.000000 10.000000 
L_front_hand 0.000000 0.000000 0.000000 0.000000 0.000000 0.000000 10.000000 
L_weapon_bone 0.000000 0.000000 0.000000 0.000000 0.000000 0.000000 10.000000 
L_front_hand01_01 0.000000 0.000000 0.000000 0.000000 0.000000 0.000000 10.000000 
L_front_hand02_01 0.000000 0.000000 0.000000 0.000000 0.000000 0.000000 10.000000 
L_front_hand03_01 0.000000 0.000000 0.000000 0.000000 0.000000 0.000000 10.000000 
L_front_hand01_02 0.000000 0.000000 0.000000 0.000000 0.000000 0.000000 10.000000 
L_front_hand02_02 0.000000 0.000000 0.000000 0.000000 0.000000 0.000000 10.000000 
L_front_hand03_02 0.000000 0.000000 0.000000 0.000000 0.000000 0.000000 10.000000 
R_forearm 0.000000 0.000000 0.000000 0.000000 0.000000 0.000000 10.000000 
R_front_hand 0.000000 0.000000 0.000000 0.000000 0.000000 0.000000 10.000000 
R_weapon_bone 0.000000 0.000000 0.000000 0.000000 0.000000 0.000000 10.000000 
R_front_hand01_01 0.000000 0.000000 0.000000 0.000000 0.000000 0.000000 10.000000 
R_front_hand02_01 0.000000 0.000000 0.000000 0.000000 0.000000 0.000000 10.000000 
R_front_hand03_01 0.000000 0.000000 0.000000 0.000000 0.000000 0.000000 10.000000 
R_front_hand01_02 0.000000 0.000000 0.000000 0.000000 0.000000 0.000000 10.000000 
R_front_hand02_02 0.000000 0.000000 0.000000 0.000000 0.000000 0.000000 10.000000 
R_front_hand03_02 0.000000 0.000000 0.000000 0.000000 0.000000 0.000000 10.000000 
null_rope01_connect 0.000000 0.000000 0.000000 0.000000 0.000000 0.000000 10.000000 
Rope1_Seg01 0.000000 0.000000 0.000000 0.000000 0.000000 0.000000 10.000000 
Rope1_Seg02 0.000000 0.000000 0.000000 0.000000 0.000000 0.000000 10.000000 
Rope1_Seg03 0.000000 0.000000 0.000000 0.000000 0.000000 0.000000 10.000000 
Rope1_Seg04 0.000000 0.000000 0.000000 0.000000 0.000000 0.000000 10.000000 
Rope1_Seg05 0.000000 0.000000 0.000000 0.000000 0.000000 0.000000 10.000000 
Rope1_Seg06 0.000000 0.000000 0.000000 0.000000 0.000000 0.000000 10.000000 
Rope1_Seg07 0.000000 0.000000 0.000000 0.000000 0.000000 0.000000 10.000000 
Rope1_Seg09 0.000000 0.000000 0.000000 0.000000 0.000000 0.000000 10.000000 
L_mid_hand01 0.000000 0.000000 0.000000 0.000000 0.000000 0.000000 10.000000 
L_mid_hand02 0.000000 0.000000 0.000000 0.000000 0.000000 0.000000 10.000000 
L_mid_hand03 0.000000 0.000000 0.000000 0.000000 0.000000 0.000000 10.000000 
null_rope02_connect 0.000000 0.000000 0.000000 0.000000 0.000000 0.000000 10.000000 
Rope2_Seg01 0.000000 0.000000 0.000000 0.000000 0.000000 0.000000 10.000000 
Rope2_Seg02 0.000000 0.000000 0.000000 0.000000 0.000000 0.000000 10.000000 
Rope2_Seg03 0.000000 0.000000 0.000000 0.000000 0.000000 0.000000 10.000000 
Rope2_Seg04 0.000000 0.000000 0.000000 0.000000 0.000000 0.000000 10.000000 
Rope2_Seg05 0.000000 0.000000 0.000000 0.000000 0.000000 0.000000 10.000000 
Rope2_Seg06 0.000000 0.000000 0.000000 0.000000 0.000000 0.000000 10.000000 
Rope2_Seg07 0.000000 0.000000 0.000000 0.000000 0.000000 0.000000 10.000000 
Rope2_Seg09 0.000000 0.000000 0.000000 0.000000 0.000000 0.000000 10.000000 
R_mid_hand01 0.000000 0.000000 0.000000 0.000000 0.000000 0.000000 10.000000 
R_mid_hand02 0.000000 0.000000 0.000000 0.000000 0.000000 0.000000 10.000000 
R_mid_hand03 0.000000 0.000000 0.000000 0.000000 0.000000 0.000000 10.000000 
spine02 0.000000 0.000000 0.000000 0.000000 0.000000 0.000000 10.000000 
spine03 0.000000 0.000000 0.000000 0.000000 0.000000 0.000000 10.000000 
pelvis 0.000000 0.000000 0.000000 0.000000 0.000000 0.000000 10.000000 
null_rope03_connect 0.000000 0.000000 0.000000 0.000000 0.000000 0.000000 10.000000 
null_rope04_connect 0.000000 0.000000 0.000000 0.000000 0.000000 0.000000 10.000000 
Rope3_Seg01 0.000000 0.000000 0.000000 0.000000 0.000000 0.000000 10.000000 
Rope3_Seg02 0.000000 0.000000 0.000000 0.000000 0.000000 0.000000 10.000000 
Rope3_Seg03 0.000000 0.000000 0.000000 0.000000 0.000000 0.000000 10.000000 
Rope3_Seg04 0.000000 0.000000 0.000000 0.000000 0.000000 0.000000 10.000000 
Rope3_Seg05 0.000000 0.000000 0.000000 0.000000 0.000000 0.000000 10.000000 
Rope3_Seg06 0.000000 0.000000 0.000000 0.000000 0.000000 0.000000 10.000000 
Rope3_Seg07 0.000000 0.000000 0.000000 0.000000 0.000000 0.000000 10.000000 
Rope3_Seg08 0.000000 0.000000 0.000000 0.000000 0.000000 0.000000 10.000000 
Rope3_Seg09 0.000000 0.000000 0.000000 0.000000 0.000000 0.000000 10.000000 
R_rear_hand01 0.000000 0.000000 0.000000 0.000000 0.000000 0.000000 10.000000 
R_rear_hand02 0.000000 0.000000 0.000000 0.000000 0.000000 0.000000 10.000000 
R_rear_hand03 0.000000 0.000000 0.000000 0.000000 0.000000 0.000000 10.000000 
Rope4_Seg01 0.000000 0.000000 0.000000 0.000000 0.000000 0.000000 10.000000 
Rope4_Seg02 0.000000 0.000000 0.000000 0.000000 0.000000 0.000000 10.000000 
Rope4_Seg03 0.000000 0.000000 0.000000 0.000000 0.000000 0.000000 10.000000 
Rope4_Seg04 0.000000 0.000000 0.000000 0.000000 0.000000 0.000000 10.000000 
Rope4_Seg05 0.000000 0.000000 0.000000 0.000000 0.000000 0.000000 10.000000 
Rope4_Seg06 0.000000 0.000000 0.000000 0.000000 0.000000 0.000000 10.000000 
Rope4_Seg07 0.000000 0.000000 0.000000 0.000000 0.000000 0.000000 10.000000 
Rope4_Seg08 0.000000 0.000000 0.000000 0.000000 0.000000 0.000000 10.000000 
Rope4_Seg09 0.000000 0.000000 0.000000 0.000000 0.000000 0.000000 10.000000 
L_rear_hand01 0.000000 0.000000 0.000000 0.000000 0.000000 0.000000 10.000000 
L_rear_hand02 0.000000 0.000000 0.000000 0.000000 0.000000 0.000000 10.000000 
L_rear_hand03 0.000000 0.000000 0.000000 0.000000 0.000000 0.000000 10.000000 
#Beginning of Data. Separated by tabs
#Fr	Tx	Ty	Tz	Rx	Ry	Rz	SF
[MASTER]
24 0.000000 0.000000 0.000000 0.001660 0.001660 0.001660 0.000000
25 0.000000 0.000000 0.000000 0.001660 0.001660 0.001660 0.000000
[root]
24 -33.958591 -51.787037 1518.489014 -91.629700 -27.676081 -90.148109 1519.751343
25 -31.594265 -52.227852 1522.323853 -91.629700 -27.676079 -90.148109 1523.547119
[chest]
24 -84.512650 -34.090519 0.000000 -1.888051 0.943089 -178.206696 91.129311
25 -84.512650 -34.090519 0.000000 -1.888050 0.943089 -178.206696 91.129311
[L_mid_tent01]
24 27.299606 22.177647 -249.918304 3.862626 36.229198 81.347603 252.381226
25 27.299612 22.177650 -249.918304 3.862628 36.229202 81.347610 252.381226
[R_mid_tent01]
24 23.228794 24.509907 226.238495 160.432037 -47.061241 87.899765 228.744751
25 23.228794 24.509907 226.238495 160.432037 -47.061241 87.899765 228.744751
[spine01]
24 -0.361383 -0.195265 0.000000 0.001845 0.001451 13.654368 0.410763
25 -0.361383 -0.195265 0.000000 0.001845 0.001451 13.654368 0.410763
[Bip01_Neck]
24 165.484543 71.581718 0.000119 176.643677 -1.657967 43.431911 180.302734
25 165.484543 71.581718 0.000119 176.643677 -1.657967 43.431911 180.302734
[L_humerus]
24 -13.983130 -135.272980 -120.471481 156.317398 70.210068 -112.010254 181.680161
25 -13.983130 -135.272980 -120.471481 156.317398 70.210068 -112.010254 181.680161
[R_humerus]
24 -13.983309 -135.273102 125.287651 -172.382263 -66.903831 -92.553993 184.909012
25 -13.983309 -135.273102 125.287651 -172.382263 -66.903831 -92.553993 184.909012
[weapon_bone]
24 235.964890 -300.705902 0.000000 0.000000 -89.951546 -128.212341 382.234833
25 235.964890 -300.705902 0.000000 0.000000 -89.951546 -128.212341 382.234833
[Bip01_Head]
24 213.405365 185.824280 10.374080 5.200446 6.151311 -43.834991 283.160980
25 213.373947 185.911484 9.244721 5.200446 6.151311 -43.834991 283.155396
[eye_left_bone]
24 -24.626970 125.451866 -64.772606 0.000000 -90.000000 -99.840431 143.318359
25 -24.626970 125.451866 -64.772606 0.000000 -90.000000 -99.840431 143.318359
[eye_right_bone]
24 -24.626970 125.451866 64.327362 0.000000 -89.965736 80.156380 143.117676
25 -24.626970 125.451866 64.327362 0.000000 -89.965736 80.156380 143.117676
[L_forearm]
24 322.776093 0.000000 -0.000119 0.000119 -0.002344 -95.807457 322.776093
25 322.776093 0.000000 -0.000119 0.000119 -0.002344 -95.807457 322.776093
[L_front_hand]
24 241.149185 -0.042021 -3.300071 -178.667953 -1.835447 -27.422350 241.171753
25 241.149185 -0.042021 -3.300071 -178.667953 -1.835447 -27.422350 241.171753
[L_weapon_bone]
24 156.183838 0.000000 0.000000 0.000014 0.000007 0.000001 156.183838
25 156.183838 0.000000 0.000000 0.000014 0.000007 0.000001 156.183838
[L_front_hand01_01]
24 86.095154 20.947098 -0.655860 -0.328329 -0.501879 70.955482 88.609184
25 86.095154 20.947098 -0.655860 -0.335131 -0.500211 71.723793 88.609184
[L_front_hand02_01]
24 86.935165 -11.437475 24.513514 147.981094 -57.745911 -53.867275 91.046425
25 86.935165 -11.437475 24.513514 149.028946 -58.148323 -55.100948 91.046425
[L_front_hand03_01]
24 86.637497 -14.123976 -20.424902 -147.939621 55.963066 -55.586479 90.126129
25 86.637497 -14.123976 -20.424902 -148.918823 56.366688 -56.764717 90.126129
[L_front_hand01_02]
24 71.020905 -0.000179 0.000030 0.000320 -0.002325 -105.673012 71.020905
25 71.020905 -0.000179 0.000030 0.000321 -0.002325 -105.728027 71.020905
[L_front_hand02_02]
24 71.020927 -0.000119 0.000060 0.000320 -0.002325 -105.673012 71.020927
25 71.020927 -0.000119 0.000060 0.000321 -0.002325 -105.728027 71.020927
[L_front_hand03_02]
24 71.020905 -0.000060 0.000060 0.000320 -0.002325 -105.673012 71.020905
25 71.020905 -0.000060 0.000060 0.000321 -0.002325 -105.728027 71.020905
[R_forearm]
24 322.776428 -0.000060 0.000030 0.209504 0.012586 -94.339050 322.776428
25 322.776428 -0.000060 0.000030 0.209504 0.012586 -94.339058 322.776428
[R_front_hand]
24 238.847015 -0.006795 2.210259 -2.635298 -10.645461 -26.312506 238.857239
25 238.847015 -0.006795 2.210259 -2.635298 -10.645461 -26.312506 238.857239
[R_weapon_bone]
24 155.664093 0.002503 -0.000030 0.003487 0.001180 -90.988930 155.664078
25 155.664093 0.002503 -0.000030 0.003487 0.001180 -90.988930 155.664078
[R_front_hand01_01]
24 87.624611 14.231146 22.918642 -150.319733 -58.611870 56.726913 91.683487
25 87.624611 14.231146 22.918642 -151.998260 -59.169334 58.688148 91.683487
[R_front_hand02_01]
24 89.356956 14.367283 -19.491137 150.553223 56.974075 58.956432 92.579636
25 89.356956 14.367283 -19.491137 152.130127 57.525928 60.828327 92.579636
[R_front_hand03_01]
24 87.286232 -22.307278 -0.143439 0.140549 -0.429018 -72.881989 90.091743
25 87.286232 -22.307278 -0.143439 0.147862 -0.431521 -74.042168 90.091743
[R_front_hand01_02]
24 71.020905 0.000060 0.000119 0.002323 -0.000334 106.381714 71.020905
25 71.020905 0.000060 0.000119 0.002323 -0.000334 106.381714 71.020905
[R_front_hand02_02]
24 71.020844 -0.000030 -0.000119 0.002323 -0.000334 106.381714 71.020836
25 71.020844 -0.000030 -0.000119 0.002323 -0.000334 106.381714 71.020836
[R_front_hand03_02]
24 71.020905 0.000000 0.000030 0.002323 -0.000334 106.381714 71.020905
25 71.020905 0.000000 0.000030 0.002323 -0.000334 106.381714 71.020905
[null_rope01_connect]
24 328.732483 0.000000 -0.000238 -137.564545 -51.925488 175.258728 328.732483
25 328.732483 0.000000 -0.000238 -137.564545 -51.925488 175.258728 328.732483
[Rope1_Seg01]
24 -0.000038 -0.000114 0.000110 104.875290 51.683495 125.884132 0.000163
25 -0.000038 -0.000114 0.000111 104.414978 50.906326 125.346161 0.000164
[Rope1_Seg02]
24 139.999863 -0.000179 0.000000 -0.197164 -3.351432 5.268797 139.999863
25 139.999863 -0.000179 0.000000 -0.177064 -3.644630 4.991698 139.999863
[Rope1_Seg03]
24 139.999924 0.000060 -0.000060 -0.069060 -3.810838 7.481379 139.999924
25 139.999924 0.000060 -0.000060 -0.112768 -4.159257 6.829436 139.999924
[Rope1_Seg04]
24 139.999924 -0.000060 -0.000119 0.903812 -4.235456 12.305718 139.999924
25 139.999924 -0.000060 -0.000119 0.363214 -5.571604 11.142626 139.999924
[Rope1_Seg05]
24 139.999832 0.000119 -0.000060 -11.003905 -25.235170 19.171576 139.999832
25 139.999832 0.000119 -0.000060 -9.931878 -24.112877 19.363165 139.999832
[Rope1_Seg06]
24 139.999954 0.000119 -0.000060 -8.439877 -10.623565 5.106812 139.999954
25 139.999954 0.000119 -0.000060 -6.892118 -9.822970 5.519262 139.999954
[Rope1_Seg07]
24 139.999985 0.000060 0.000000 -5.149360 -4.725628 1.819720 139.999985
25 139.999985 0.000060 0.000000 -4.344485 -4.493236 2.113871 139.999985
[Rope1_Seg09]
24 121.602913 0.000119 -0.000089 -89.793175 -1.359789 0.847147 121.602913
25 121.602913 0.000119 -0.000089 -89.793175 -1.359789 0.847147 121.602913
[L_mid_hand01]
24 103.859421 1.038730 8.195221 130.544373 -67.584534 -38.866943 104.187431
25 103.859421 1.038730 8.195221 130.544373 -67.584534 -38.866943 104.187431
[L_mid_hand02]
24 105.572853 -4.139662 -10.864139 -168.923172 43.409321 -73.498909 106.211075
25 105.572853 -4.139662 -10.864139 -168.923172 43.409309 -73.498886 106.211075
[L_mid_hand03]
24 104.641464 17.579376 -3.913581 -6.012627 17.808178 74.893677 106.179977
25 104.641464 17.579376 -3.913581 -6.012627 17.808174 74.893669 106.179977
[null_rope02_connect]
24 328.732849 0.000179 -0.000119 -123.736771 41.490059 18.218468 328.732849
25 328.732849 0.000179 -0.000119 -123.736763 41.490059 18.218470 328.732849
[Rope2_Seg01]
24 -0.000047 0.000134 0.000153 -52.187305 47.380798 48.257122 0.000208
25 -0.000046 0.000134 0.000153 -52.350353 47.370735 48.016705 0.000208
[Rope2_Seg02]
24 139.999741 -0.000060 -0.000119 -0.076797 -6.520157 2.507860 139.999756
25 139.999741 -0.000060 -0.000119 -0.067356 -7.011021 2.582586 139.999756
[Rope2_Seg03]
24 140.000107 0.000030 0.000000 -0.283770 -8.552714 3.882113 140.000107
25 140.000107 0.000030 0.000000 -0.295989 -8.984092 3.850516 140.000107
[Rope2_Seg04]
24 139.999802 0.000000 -0.000060 -1.617260 -19.441031 8.057925 139.999802
25 139.999802 0.000000 -0.000060 -1.747834 -19.896271 7.725547 139.999802
[Rope2_Seg05]
24 139.999985 -0.000060 0.000119 -6.178144 -24.111027 4.634861 139.999985
25 139.999985 -0.000060 0.000119 -5.531350 -22.667356 4.752619 139.999985
[Rope2_Seg06]
24 139.999893 -0.000030 -0.000119 -2.772936 -6.398080 0.627393 139.999893
25 139.999893 -0.000030 -0.000119 -2.499617 -6.306272 0.803271 139.999893
[Rope2_Seg07]
24 139.999893 0.000060 -0.000060 -1.736241 -3.225360 0.218786 139.999893
25 139.999893 0.000060 -0.000060 -1.595423 -3.224256 0.313766 139.999893
[Rope2_Seg09]
24 121.338966 0.000089 -0.000060 33.793236 -1.359788 -0.847141 121.338966
25 121.338966 0.000089 -0.000060 33.793236 -1.359788 -0.847141 121.338966
[R_mid_hand01]
24 104.680779 11.144459 -10.335981 -16.212063 45.237240 70.462852 105.778534
25 104.680779 11.144459 -10.335981 -16.212063 45.237247 70.462852 105.778534
[R_mid_hand02]
24 104.070427 2.443552 8.231699 49.067368 -67.749771 39.286453 104.424065
25 104.070427 2.443552 8.231699 49.067368 -67.749771 39.286453 104.424065
[R_mid_hand03]
24 106.028137 -11.221827 -5.996406 -177.101105 15.551026 -76.585571 106.788818
25 106.028137 -11.221827 -5.996406 -177.101105 15.551026 -76.585571 106.788818
[spine02]
24 129.756927 0.001550 0.000119 -1.023899 -3.926965 6.770993 129.756927
25 129.756927 0.001550 0.000119 -1.023899 -3.926965 6.770993 129.756927
[spine03]
24 78.613846 0.087372 -4.898873 1.040681 4.146420 4.212376 78.766380
25 78.613846 0.087372 -4.898873 1.040681 4.146420 4.212376 78.766380
[pelvis]
24 169.435242 0.051022 0.000000 0.019518 -0.190233 -10.721436 169.435257
25 169.435242 0.051022 0.000000 0.019518 -0.190233 -10.721436 169.435257
[null_rope03_connect]
24 -1.257226 -2.466202 137.391083 -148.996323 -87.995132 -107.160522 137.418976
25 -1.257226 -2.466202 137.391083 -148.996323 -87.995132 -107.160522 137.418976
[null_rope04_connect]
24 -1.259640 -2.480268 -137.844437 -148.996323 -87.995132 -107.160522 137.872513
25 -1.259640 -2.480268 -137.844437 -148.996323 -87.995132 -107.160522 137.872513
[Rope3_Seg01]
24 0.000000 0.000000 0.000000 -136.332367 -44.261108 -75.829826 0.000000
25 0.000000 0.000000 0.000000 -136.386795 -43.533321 -75.508423 0.000000
[Rope3_Seg02]
24 139.999924 -0.000119 0.000060 -13.905137 2.266295 -37.193279 139.999924
25 139.999924 -0.000119 0.000060 -14.196522 2.347620 -37.463631 139.999924
[Rope3_Seg03]
24 139.999924 -0.000119 0.000119 -56.943554 10.113650 -44.892979 139.999924
25 139.999924 -0.000119 0.000119 -57.985138 10.669641 -45.339085 139.999924
[Rope3_Seg04]
24 139.999924 0.000119 0.000000 -28.302221 25.228058 -8.184310 139.999924
25 139.999924 0.000119 0.000000 -27.788483 25.657555 -7.886437 139.999924
[Rope3_Seg05]
24 139.999924 -0.000238 0.000060 -8.485144 31.809677 8.619429 139.999924
25 139.999924 -0.000238 0.000060 -8.173096 31.385416 8.427950 139.999924
[Rope3_Seg06]
24 139.999893 -0.000119 -0.000060 -0.120417 13.010477 5.874215 139.999893
25 139.999893 -0.000119 -0.000060 -0.124915 12.610023 5.567924 139.999893
[Rope3_Seg07]
24 139.999771 0.000060 -0.000119 0.627661 5.881768 2.639029 139.999771
25 139.999771 0.000060 -0.000119 0.615698 5.788324 2.543692 139.999771
[Rope3_Seg08]
24 139.999985 -0.000060 0.000000 0.697516 3.144368 1.376488 139.999985
25 139.999985 -0.000060 0.000000 0.690868 3.105117 1.331523 139.999985
[Rope3_Seg09]
24 90.185997 -0.000179 -0.000060 89.793228 -1.359877 -0.847183 90.185997
25 90.185997 -0.000179 -0.000060 89.793228 -1.359877 -0.847183 90.185997
[R_rear_hand01]
24 103.366196 -6.073594 -10.757982 -177.714203 24.565960 -73.910950 104.101845
25 103.366196 -6.073594 -10.757982 -177.714203 24.565960 -73.910950 104.101845
[R_rear_hand02]
24 100.509819 12.039542 -7.992327 -12.874829 36.868488 72.167213 101.543350
25 100.509819 12.039542 -7.992327 -12.874829 36.868488 72.167213 101.543350
[R_rear_hand03]
24 101.539970 5.215704 5.435467 71.484627 -71.816643 21.513817 101.819031
25 101.539970 5.215704 5.435467 71.484581 -71.816628 21.513813 101.819031
[Rope4_Seg01]
24 -0.000012 -0.000018 -0.000153 53.502682 -32.650120 -106.363579 0.000154
25 -0.000011 -0.000015 -0.000153 53.881428 -32.417114 -107.224358 0.000154
[Rope4_Seg02]
24 139.999985 0.000060 0.000119 14.120251 -43.439999 6.726665 139.999985
25 139.999985 0.000060 0.000119 13.444295 -41.590385 6.496960 139.999985
[Rope4_Seg03]
24 139.999924 0.000000 -0.000238 50.596245 -37.438225 17.815504 139.999924
25 139.999924 0.000000 -0.000238 51.721699 -39.157993 18.627670 139.999924
[Rope4_Seg04]
24 139.999985 0.000000 0.000119 25.535187 -2.628910 21.919493 139.999985
25 139.999985 0.000000 0.000119 25.576872 -2.481934 22.745022 139.999985
[Rope4_Seg05]
24 139.999802 -0.000060 -0.000119 19.001106 13.001479 36.062283 139.999802
25 139.999802 -0.000060 -0.000119 18.240776 13.107539 35.551231 139.999802
[Rope4_Seg06]
24 139.999924 0.000000 0.000060 3.119231 11.803628 16.673992 139.999924
25 139.999924 0.000000 0.000060 2.873923 11.257490 16.053621 139.999924
[Rope4_Seg07]
24 139.999802 0.000000 0.000000 0.064004 4.590672 6.124916 139.999802
25 139.999802 0.000000 0.000000 0.064720 4.426860 5.985727 139.999802
[Rope4_Seg08]
24 139.999924 0.000000 0.000119 -1.719198 2.319778 3.118652 139.999924
25 139.999924 0.000000 0.000119 -1.709583 2.259223 3.060325 139.999924
[Rope4_Seg09]
24 90.185791 0.000060 0.000060 -135.617828 2.228885 0.850567 90.185791
25 90.185791 0.000060 0.000060 -135.617828 2.228885 0.850567 90.185791
[L_rear_hand01]
24 101.696655 -8.392275 -7.654577 -12.874829 -36.868488 107.832764 102.329041
25 101.696655 -8.392275 -7.654577 -12.874829 -36.868488 107.832764 102.329041
[L_rear_hand02]
24 102.726799 -1.568258 5.773216 71.484627 71.816643 158.486176 102.900848
25 102.726799 -1.568258 5.773216 71.484581 71.816628 158.486160 102.900848
[L_rear_hand03]
24 104.552910 9.721220 -10.420293 -177.714203 -24.565960 -106.089035 105.519653
25 104.552910 9.721220 -10.420293 -177.714203 -24.565960 -106.089035 105.519653
